<?xml version="1.0" encoding="utf-8"?>
<!-- Generator: Adobe Illustrator 16.0.0, SVG Export Plug-In . SVG Version: 6.00 Build 0)  -->
<!DOCTYPE svg PUBLIC "-//W3C//DTD SVG 1.1//EN" "http://www.w3.org/Graphics/SVG/1.1/DTD/svg11.dtd">
<svg version="1.1" id="Layer_1" xmlns="http://www.w3.org/2000/svg" xmlns:xlink="http://www.w3.org/1999/xlink" x="0px" y="0px"
	 width="1024px" height="768px" viewBox="0 0 1024 768" enable-background="new 0 0 1024 768" xml:space="preserve">
<circle cx="512" cy="384" r="384"/>
<path fill="#FFFFFF" d="M368.535,320.391L368.535,320.391c5.189-4.191,12.794-3.382,16.986,1.808l129.404,160.214
	c4.191,5.189,3.382,12.795-1.808,16.986l0,0c-5.189,4.191-12.795,3.383-16.986-1.808L366.728,337.377
	C362.536,332.188,363.345,324.583,368.535,320.391z"/>
<path fill="#FFFFFF" d="M638.291,317.602L638.291,317.602c5.293,4.031,6.315,11.59,2.283,16.883L516.103,497.877
	c-4.032,5.292-11.591,6.314-16.884,2.282l0,0c-5.292-4.031-6.314-11.591-2.282-16.883l124.472-163.393
	C625.439,314.591,632.999,313.57,638.291,317.602z"/>
</svg>
